<?xml version="1.0" encoding="UTF-8"?>
<svg width="121px" height="116px" viewBox="0 0 121 116" version="1.1" xmlns="http://www.w3.org/2000/svg" xmlns:xlink="http://www.w3.org/1999/xlink">
    <title>STRATA LOGO Polygon</title>
    <g id="Strata" stroke="none" stroke-width="1" fill="none" fill-rule="evenodd">
        <g id="Artboard" transform="translate(-195.000000, -423.000000)" fill="#AAAAAA">
            <g id="Strata-logo-outlined-white-Copy" transform="translate(195.917924, 423.337169)">
                <g id="Strata-icon" transform="translate(0.000000, 0.000000)">
                    <g id="STRATA-LOGO-Polygon" transform="translate(59.755753, 57.500000) rotate(60.000000) translate(-59.755753, -57.500000) translate(19.918584, 11.500000)">
                        <path d="M39.8371686,-7.30489317e-13 L79.6743371,23 L79.6743371,69 L39.8371686,92 L2.39445388e-13,69 L2.34116318e-13,23 L39.8371686,-7.30489317e-13 Z M23.5844159,26.8825536 C23.1342187,25.5822841 21.1596461,24.9795939 19.0867493,25.5350249 C16.9528849,26.1067922 15.5228783,27.6892906 15.8927403,29.0696342 L15.8927403,29.0696342 L26.3102068,67.9481487 L26.3459378,68.064677 C26.796135,69.3649464 28.7707076,69.9676366 30.8436044,69.4122056 C31.7194784,69.1775159 32.476766,68.7725377 33.0396726,68.2811483 C33.5891789,68.0883024 34.0146575,67.7477473 34.236523,67.2719551 L34.236523,67.2719551 L46.641,40.668 L54.1128219,68.5510193 L54.1485529,68.6675476 C54.5987501,69.9678171 56.5733226,70.5705073 58.6462195,70.0150762 C60.7800839,69.443309 62.2100904,67.8608105 61.8402285,66.480467 L61.8402285,66.480467 L51.4227619,27.6019525 L51.3870309,27.4854242 C50.9368337,26.1851547 48.9622612,25.5824645 46.8893644,26.1378956 C46.7971284,26.1626101 46.7062074,26.1892131 46.6166901,26.2176066 C45.4054089,26.1573566 44.3864097,26.5758401 43.9964458,27.4121206 L43.9964458,27.4121206 L31.126,55.013 L23.6201469,26.9990818 Z" id="Combined-Shape"></path>
                    </g>
                </g>
            </g>
        </g>
    </g>
</svg>